<?xml version="1.0" standalone="no"?>
<!DOCTYPE svg PUBLIC "-//W3C//DTD SVG 20010904//EN"
 "http://www.w3.org/TR/2001/REC-SVG-20010904/DTD/svg10.dtd">
<svg version="1.0" xmlns="http://www.w3.org/2000/svg"
 width="800.000000pt" height="800.000000pt" viewBox="0 0 800.000000 800.000000"
 preserveAspectRatio="xMidYMid meet">
<metadata>
Created by potrace 1.11, written by Peter Selinger 2001-2013
</metadata>
<g transform="translate(0.000000,800.000000) scale(0.100000,-0.100000)"
fill="#000000" stroke="none">
<path d="M3905 7503 c-59 -13 -167 -60 -173 -75 -2 -5 -8 -6 -13 -2 -5 3 -9 1
-9 -3 0 -5 -30 -24 -67 -43 -38 -19 -70 -37 -73 -41 -3 -3 -25 -16 -50 -30
-25 -13 -46 -27 -48 -31 -2 -5 -8 -8 -12 -8 -12 0 -134 -71 -141 -83 -3 -5 -9
-7 -12 -5 -4 1 -17 -6 -29 -17 -13 -10 -25 -19 -28 -18 -12 1 -50 -21 -50 -29
0 -5 -4 -7 -9 -3 -5 3 -12 1 -16 -5 -3 -6 -23 -17 -43 -26 -20 -8 -39 -19 -43
-25 -3 -6 -12 -11 -20 -13 -8 -1 -39 -17 -69 -37 -30 -19 -80 -47 -110 -63
-30 -16 -61 -36 -67 -44 -7 -9 -13 -13 -13 -9 0 4 -18 -4 -40 -18 -22 -14 -42
-25 -44 -25 -3 0 -25 -13 -48 -29 -24 -16 -46 -27 -50 -25 -5 3 -8 0 -8 -5 0
-6 -5 -11 -11 -11 -7 0 -18 -8 -26 -17 -8 -10 -11 -12 -7 -4 4 8 -14 0 -39
-18 -26 -18 -47 -28 -47 -24 0 4 -4 3 -8 -3 -4 -6 -34 -25 -67 -44 -33 -19
-63 -38 -66 -43 -3 -5 -9 -7 -12 -5 -4 1 -15 -4 -25 -12 -10 -8 -23 -16 -28
-17 -9 -1 -121 -66 -139 -80 -6 -4 -30 -19 -55 -32 -25 -13 -53 -31 -62 -39
-10 -8 -18 -12 -18 -9 0 3 -36 -16 -80 -43 -44 -27 -95 -56 -114 -65 -18 -9
-43 -25 -55 -36 -11 -11 -21 -17 -21 -13 0 3 -11 -1 -24 -10 -14 -8 -41 -25
-60 -36 -140 -79 -181 -103 -187 -113 -3 -5 -8 -8 -10 -7 -9 4 -59 -24 -59
-32 0 -5 -5 -6 -10 -3 -5 3 -10 1 -10 -5 0 -6 -4 -9 -9 -5 -5 3 -12 1 -16 -4
-3 -5 -18 -16 -33 -24 -134 -70 -249 -148 -285 -194 -12 -15 -24 -30 -27 -33
-16 -13 -49 -78 -43 -83 3 -4 1 -7 -6 -7 -7 0 -10 -4 -7 -9 4 -5 1 -11 -5 -13
-6 -2 -12 -18 -14 -35 -1 -17 -6 -36 -10 -43 -4 -7 -9 -26 -11 -44 -6 -57 -4
-3130 2 -3161 10 -48 12 -60 14 -60 1 0 3 -8 5 -17 7 -38 61 -135 91 -166 18
-17 31 -32 28 -32 -3 0 5 -11 18 -24 22 -24 132 -94 239 -153 30 -17 70 -39
89 -50 87 -50 167 -97 185 -108 11 -7 23 -13 27 -14 4 -1 44 -24 88 -51 44
-28 81 -50 83 -50 4 0 319 -182 347 -200 8 -5 31 -18 50 -28 19 -11 107 -61
195 -112 87 -51 165 -93 172 -93 7 0 11 -3 8 -5 -3 -3 19 -19 48 -35 28 -17
75 -43 102 -59 28 -16 58 -32 68 -35 9 -3 17 -9 17 -14 0 -5 4 -9 9 -9 5 0 86
-45 181 -100 94 -55 173 -100 176 -100 2 0 27 -15 56 -33 29 -19 78 -47 108
-64 30 -17 142 -81 249 -143 107 -62 217 -123 245 -136 86 -38 206 -50 306
-29 57 12 205 80 270 125 14 10 56 35 95 56 38 22 90 51 115 66 25 15 51 31
59 34 7 4 52 30 100 57 47 28 124 73 171 99 47 27 101 59 120 70 141 82 301
174 330 191 101 56 266 152 270 157 3 3 21 13 40 23 59 32 95 52 100 57 3 3
19 12 35 20 17 8 32 17 35 20 5 5 15 11 94 55 58 33 216 124 251 146 17 10 37
22 45 26 8 4 40 21 70 39 30 17 74 42 96 55 419 240 482 279 540 333 35 32 62
62 59 66 -3 4 2 10 10 14 8 3 15 12 15 21 0 8 4 15 9 15 5 0 11 8 14 18 3 9
13 37 22 62 10 25 20 61 23 80 8 44 8 3159 0 3220 -7 55 -36 130 -51 130 -6 0
-7 3 -4 7 4 3 -1 12 -11 20 -10 9 -11 11 -2 7 8 -4 2 8 -15 28 -16 20 -36 37
-43 37 -7 1 -10 6 -7 11 3 6 -4 14 -17 19 -13 6 -19 10 -14 10 11 1 -62 51
-74 51 -6 0 -10 5 -10 11 0 5 -4 7 -10 4 -5 -3 -10 -3 -10 2 0 4 -21 19 -47
33 -27 13 -50 27 -53 31 -3 3 -20 12 -37 20 -18 8 -33 17 -33 21 0 5 -6 8 -13
8 -7 0 -19 6 -25 13 -7 6 -16 12 -20 13 -4 0 -25 11 -47 25 -22 13 -43 23 -47
21 -5 -1 -8 2 -8 6 0 10 -51 37 -63 34 -4 -1 -10 5 -13 13 -4 8 -15 15 -25 15
-10 0 -19 4 -19 8 0 5 -26 22 -57 37 -32 16 -60 32 -63 35 -4 5 -111 67 -206
120 -17 10 -42 24 -55 32 -13 7 -26 15 -29 18 -12 12 -70 40 -70 34 0 -4 -9 3
-20 16 -11 13 -20 20 -20 17 0 -4 -21 7 -47 23 -27 16 -65 37 -85 47 -21 10
-38 21 -38 25 0 5 -6 8 -14 8 -7 0 -19 7 -26 15 -7 8 -21 15 -30 15 -10 0 -20
4 -22 8 -3 8 -47 35 -143 87 -27 15 -57 33 -65 40 -8 7 -30 18 -47 26 -18 8
-33 18 -33 22 0 5 -4 6 -9 3 -5 -4 -11 -3 -13 2 -4 10 -98 65 -98 57 0 -2 -11
5 -24 16 -13 12 -26 19 -29 18 -3 -2 -13 3 -23 12 -17 15 -107 67 -161 93 -13
6 -23 14 -23 19 0 4 -4 7 -10 7 -5 0 -31 13 -58 29 -26 15 -68 39 -93 53 -50
29 -147 84 -169 98 -8 5 -67 39 -130 75 -63 36 -122 70 -130 75 -8 6 -26 16
-40 22 -14 7 -27 15 -30 18 -8 10 -99 50 -123 54 -12 3 -22 5 -22 6 0 5 -49
11 -105 14 -36 1 -92 -4 -125 -11z m425 -1507 c82 -12 167 -26 190 -32 14 -3
113 -29 150 -39 46 -12 145 -48 203 -74 36 -16 68 -27 71 -24 3 4 6 1 6 -6 0
-7 4 -10 9 -7 5 4 11 3 13 -1 1 -5 30 -21 63 -38 72 -36 189 -107 193 -117 2
-5 9 -8 16 -8 7 0 21 -9 31 -20 10 -11 20 -18 22 -16 3 2 13 -3 22 -12 35 -33
61 -52 72 -52 5 0 8 -3 6 -7 -3 -5 7 -17 21 -27 14 -11 22 -13 17 -6 -5 9 -4
11 3 6 7 -4 12 -14 12 -22 0 -8 4 -14 8 -14 17 0 242 -236 242 -253 0 -5 5 -5
10 -2 6 4 9 3 8 -2 -3 -9 92 -146 104 -151 5 -2 8 -8 8 -13 0 -5 14 -31 30
-57 17 -27 30 -52 30 -55 0 -2 -45 -31 -101 -62 -55 -32 -107 -64 -114 -72 -8
-7 -16 -12 -18 -11 -2 2 -103 -55 -328 -187 -10 -5 -48 -28 -86 -49 -37 -22
-87 -52 -109 -67 -23 -16 -44 -25 -48 -22 -3 4 -6 1 -6 -5 0 -31 -30 -3 -84
78 -33 49 -64 87 -68 84 -5 -3 -7 -1 -6 5 6 19 -215 226 -236 222 -4 -1 -18
10 -33 23 -15 14 -30 23 -35 20 -4 -3 -8 0 -8 6 0 6 -4 8 -10 5 -5 -3 -10 -2
-10 3 0 8 -99 56 -160 77 -3 1 -12 4 -20 8 -17 7 -80 23 -130 33 -45 10 -251
11 -315 2 -70 -10 -178 -37 -189 -48 -6 -6 -16 -10 -24 -10 -19 0 -162 -70
-162 -79 0 -4 -6 -8 -13 -8 -16 0 -73 -39 -109 -75 -16 -15 -28 -24 -28 -20 0
4 -36 -31 -80 -77 -44 -46 -79 -86 -76 -88 2 -2 -7 -16 -21 -31 -27 -29 -68
-102 -65 -114 1 -5 -2 -8 -6 -8 -13 0 -77 -160 -87 -215 -2 -16 -10 -46 -16
-65 -6 -19 -12 -96 -14 -170 -3 -123 1 -163 29 -298 8 -35 29 -96 38 -106 4
-6 8 -18 8 -28 0 -10 5 -18 10 -18 6 0 9 -3 8 -7 -3 -10 45 -107 55 -111 4 -2
7 -10 7 -18 0 -8 3 -14 8 -14 4 0 13 -14 21 -31 12 -27 175 -200 226 -238 81
-63 277 -159 358 -176 15 -3 39 -8 55 -11 15 -3 45 -9 67 -14 68 -15 271 -9
364 11 104 23 223 64 273 96 21 13 40 23 43 23 20 0 143 96 214 167 78 77 104
95 113 75 4 -11 111 -75 125 -75 7 0 14 -6 17 -14 3 -7 12 -13 20 -13 8 0 16
-3 18 -7 2 -5 23 -19 48 -33 25 -13 50 -28 55 -32 6 -5 116 -72 245 -149 129
-77 239 -144 244 -149 7 -7 -46 -84 -114 -164 -67 -78 -232 -235 -291 -276
-19 -13 -36 -27 -39 -31 -16 -21 -208 -136 -312 -188 -298 -145 -562 -206
-898 -205 -232 1 -386 26 -615 101 -100 32 -289 117 -390 175 -217 124 -474
363 -626 583 -19 27 -41 57 -49 67 -8 9 -31 47 -50 85 -19 37 -38 70 -41 73
-8 7 -108 236 -113 257 -1 10 -6 27 -10 38 -13 35 -24 69 -32 100 -4 17 -8 32
-9 35 -8 29 -24 106 -30 140 -2 14 -7 36 -10 50 -23 111 -23 486 0 600 3 14 7
36 10 49 4 23 26 126 31 144 1 4 2 8 3 10 2 1 4 12 7 24 2 12 15 55 29 95 14
40 27 80 30 90 2 9 11 30 19 47 9 17 17 34 18 38 3 21 29 72 38 78 6 4 8 11 5
16 -4 5 -1 9 6 9 7 0 10 3 6 6 -3 3 5 24 19 45 13 21 22 39 19 39 -3 0 3 9 13
20 10 11 25 33 32 48 8 15 38 59 66 98 29 40 50 75 47 78 -4 3 1 6 10 6 10 0
17 6 17 13 0 7 9 19 20 27 11 8 20 18 20 22 0 24 268 270 370 338 19 13 39 30
43 37 5 7 12 11 16 9 4 -3 17 4 29 14 12 11 28 20 37 20 8 0 15 3 15 8 0 4 26
20 58 37 31 16 60 34 64 40 4 5 8 7 8 2 0 -4 12 1 27 10 15 10 30 17 33 17 8
-2 55 20 61 29 3 5 10 8 15 8 5 0 63 17 129 38 66 22 145 44 175 50 30 6 66
14 80 17 45 9 104 17 142 18 21 1 38 3 38 7 0 6 360 2 410 -5z m1446 -1619 c4
-4 7 -43 6 -87 l-3 -80 139 0 138 0 -1 80 c-1 47 3 84 9 89 6 4 54 7 106 7
l95 -2 0 -87 0 -87 90 0 90 0 -1 -95 c-1 -53 -4 -101 -7 -108 -3 -8 -30 -12
-86 -11 -44 1 -82 -1 -82 -5 -4 -18 -5 -238 -1 -252 3 -13 18 -15 83 -14 44 1
82 -3 86 -8 4 -7 6 -104 4 -188 -1 -12 -11 -17 -38 -17 -21 0 -61 -1 -88 -1
l-51 -1 1 -77 c1 -43 0 -82 -2 -88 -2 -6 -46 -10 -106 -10 l-102 0 0 88 c0 80
-1 87 -20 87 -44 1 -231 2 -242 1 -9 -1 -13 -22 -12 -73 0 -40 0 -80 0 -88 -1
-12 -19 -15 -103 -15 l-103 1 -3 90 -3 90 -84 -2 c-56 -2 -85 2 -87 9 -2 7 -4
55 -4 107 l1 95 88 0 87 -1 0 137 0 136 -77 1 c-43 0 -83 1 -88 1 -8 1 -13
138 -6 199 1 8 25 12 86 12 l85 0 0 83 c0 46 2 86 4 88 8 8 194 4 202 -4z"/>
<path d="M5784 3986 c-2 -6 -3 -67 -1 -136 l2 -125 135 0 135 1 0 134 0 135
-133 1 c-90 1 -135 -2 -138 -10z"/>
</g>
</svg>
